<?xml version="1.0" encoding="UTF-8"?>
<svg id="Calque_2" data-name="Calque 2" xmlns="http://www.w3.org/2000/svg" viewBox="0 0 782 127.98">
  <defs>
    <style>
      .cls-1 {
        fill: #fffcf7;
        stroke-width: 0px;
      }
    </style>
  </defs>
  <g id="Calque_1-2" data-name="Calque 1">
    <g>
      <path class="cls-1" d="M69.76,92.6c-12.29,0-20.08-9.54-20.08-28.61s7.28-28.61,20.83-28.61c11.54,0,18.57,7.28,18.82,21.58h42.66C132,21.08,110.17,0,68.01,0S0,24.84,0,64.24s23.84,63.74,66.5,63.74,65.5-19.82,65.5-56.46h-42.41c-.25,14.05-7.53,21.08-19.82,21.08Z"/>
      <path class="cls-1" d="M207.04,0C164.38,0,143.55,16.31,143.55,42.66c0,2.76.25,5.77.75,8.28h43.42c-.25-2.51-.25-4.52-.25-5.02,0-8.53,6.03-13.55,17.07-13.55,13.05,0,19.08,5.02,19.08,16.56v9.03h-39.65c-30.86,0-44.17,14.31-44.17,33.88,0,21.33,15.31,36.14,45.92,36.14,23.09,0,35.39-10.04,39.15-25.6h.25c0,7.78-.75,18.32-1.5,23.59h49.69V52.95C273.29,20.07,251.97,0,207.04,0ZM223.61,81.3c0,11.8-8.54,18.57-22.59,18.57-10.04,0-16.06-4.27-16.06-11.8,0-6.02,4.76-10.04,13.04-10.04h25.6v3.26Z"/>
      <path class="cls-1" d="M510.21,0C467.54,0,446.71,16.31,446.71,42.66c0,2.76.25,5.77.75,8.28h43.42c-.25-2.51-.25-4.52-.25-5.02,0-8.53,6.03-13.55,17.07-13.55,13.05,0,19.07,5.02,19.07,16.56v9.03h-39.65c-30.87,0-44.17,14.31-44.17,33.88,0,21.33,15.31,36.14,45.92,36.14,23.09,0,35.39-10.04,39.15-25.6h.25c0,7.78-.75,18.32-1.51,23.59h49.69V52.95C576.46,20.07,555.13,0,510.21,0ZM526.77,81.3c0,11.8-8.53,18.57-22.58,18.57-10.04,0-16.06-4.27-16.06-11.8,0-6.02,4.77-10.04,13.05-10.04h25.6v3.26Z"/>
      <path class="cls-1" d="M680.11,0c-23.85,0-35.64,14.55-40.66,36.64h-.5l1.5-34.63h-49.69v123.97h49.69v-51.95c0-22.08,8.03-32.37,20.33-32.37,9.29,0,14.56,5.77,14.56,20.08,0,3.76,0,10.54-.5,16.31h42.66c.5-7.03,1.26-19.58,1.26-28.61C718.75,16.06,706.2,0,680.11,0Z"/>
      <path class="cls-1" d="M732.31,2.01v123.97h49.69V2.01h-49.69Z"/>
      <g>
        <path class="cls-1" d="M365.12,54.53c-5.68,0-9.73,5.14-8.04,11.17.78,2.77,3.84,5.28,6.69,5.63,1.56.2,2.94.07,4.21-.37,1.13-.4,2.12-.98,2.96-1.77h.03c1.63-1.57,2.61-3.73,2.61-6.22,0-4.77-3.66-8.43-8.46-8.43ZM370.94,63.65h-4.17c-2.23,0-3.21-.81-3.21-2.53s1.2-2.77,3.14-2.77c2.46,0,4.17,1.57,4.25,4.19v1.11Z"/>
        <path class="cls-1" d="M376.68,90.1c.04-.4.02-.81.04-1.25.14-2.43-.44-5.96-.89-7.56l-.58,2.59c-.7,2.42-1.64,4.45-2.73,6.22-.99,1.65-2.13,3.08-3.31,4.23l-.26.26c-5.51,5.44-12.02,6.1-12.02,6.1,0,2.8-.47,5.41-1.47,7.79.51.04.99.15,1.47.15,2.28,0,4.48-.4,6.55-1.1v-.04c2.02-.66,3.85-1.69,5.47-2.94,4.41-3.42,7.35-8.57,7.72-14.45Z"/>
        <path class="cls-1" d="M430.15,48.43v77.55h-53.43v-7.66c-2.64,0-5.37-.48-7.76-1.18l-2.05-.62,2.05-.97c4.27-2.09,7.95-6.27,10.67-10.64.86-1.39,1.62-2.79,2.28-4.15,1.72-3.6,2.71-7.65,2.71-11.95,0-1.69-.17-3.33-.47-4.93-.35-1.85-.9-3.63-1.6-5.32-.34-.82-.71-1.63-1.12-2.42,0,0-.37-.71-.37-.71l1.49-1.28,6.62-5.69c-1.92-3.41-6.4-10.81-11.31-15.47-2.8-2.65-6.2-5.14-10.87-6.49h0c-1.78-.55-3.66-.89-5.6-.98-.33-.02-.66-.02-.99-.02-12.24,0-22.16,9.93-22.16,22.16v14.62l-1.02.92-17.54,15.9h0l-5.58,5.06c5.45,9.93,16.01,16.65,28.13,16.65.99,0,1.97-.05,2.93-.13,1.32-.12,2.62-.32,3.88-.6.01,0,.02,0,.02.01v5.87h-61.44V2h49.69l-1.51,33.13h.51c5.77-21.58,19.32-35.13,46.93-35.13,30.62,0,46.93,17.31,46.93,48.43Z"/>
        <path class="cls-1" d="M366.98,46.5c-1.69-.49-3.54-.83-5.6-.98,1.94.08,3.82.42,5.6.98Z"/>
      </g>
    </g>
  </g>
</svg>