<?xml version="1.0" encoding="UTF-8"?>
<svg id="Calque_2" data-name="Calque 2" xmlns="http://www.w3.org/2000/svg" viewBox="0 0 199.4 213.71">
  <defs>
    <style>
      .cls-1 {
        fill: #2b2c2d;
        stroke-width: 0px;
      }
    </style>
  </defs>
  <g id="Calque_1-2" data-name="Calque 1">
    <g>
      <path class="cls-1" d="M181.83,87.78c-.89-2.19-1.88-4.33-2.98-6.42,0-.02-.97-1.9-.97-1.9l3.95-3.4,17.57-15.1c-5.1-9.07-16.98-28.72-30.04-41.07-7.45-7.04-16.45-13.66-28.86-17.24h-.02c-4.47-1.3-9.39-2.21-14.86-2.59-.87-.04-1.76-.06-2.65-.06-32.51,0-58.84,26.35-58.84,58.86v38.82l-2.73,2.45-46.57,42.24h-.02l-14.82,13.44c14.47,26.35,42.5,44.2,74.71,44.2,2.63,0,5.22-.12,7.79-.32,3.5-.32,6.96-.87,10.3-1.6t.04.02v15.6h73.51v-20.36c-7.02,0-14.25-1.27-20.58-3.14l-5.44-1.64,5.44-2.55c11.33-5.55,21.09-16.66,28.32-28.25,2.29-3.68,4.31-7.41,6.05-11.03,4.57-9.55,7.21-20.32,7.21-31.72,0-4.51-.44-8.87-1.23-13.12-.95-4.9-2.41-9.61-4.27-14.13ZM135.57,23.98c12.73,0,22.45,9.72,22.45,22.38,0,6.62-2.61,12.35-6.92,16.5l-.08.02c-2.25,2.1-4.86,3.64-7.85,4.7-3.38,1.17-7.04,1.52-11.19.99-7.57-.91-15.69-7.57-17.77-14.94-4.47-15.99,6.29-29.65,21.37-29.65ZM166.35,115.12c-.04,1.17,0,2.25-.08,3.32-.99,15.6-8.78,29.27-20.5,38.35-4.29,3.32-9.17,6.05-14.53,7.79v.1c-5.49,1.86-11.33,2.94-17.39,2.94-1.25,0-2.53-.3-3.91-.38,2.65-6.34,3.91-13.28,3.91-20.71,0,0,17.28-1.76,31.92-16.19l.69-.69c3.14-3.04,6.15-6.84,8.78-11.21,2.87-4.72,5.36-10.12,7.23-16.54l1.54-6.86c1.19,4.25,2.73,13.62,2.35,20.08Z"/>
      <path class="cls-1" d="M139.94,48.19h11.07v-2.93c-.2-6.96-4.76-11.13-11.27-11.13-5.16,0-8.34,2.79-8.34,7.35s2.61,6.72,8.54,6.72Z"/>
    </g>
  </g>
</svg>